{"title":"Dead.Mine.2012.WEBRip XViD juggs","uid":8432135,"size":748592123,"categoryP":"video","categoryS":"movies","magnet":"?xt=urn:btih:a2a157b383aa0454c8f497a1b97dfe3e00b24d70&amp;dn=Dead.Mine.2012.WEBRip+XViD+juggs&amp;tr=udp%3A%2F%2Ftracker.openbittorrent.com%3A80&amp;tr=udp%3A%2F%2Fopen.demonii.com%3A1337&amp;tr=udp%3A%2F%2Ftracker.coppersurfer.tk%3A6969&amp;tr=udp%3A%2F%2Fexodus.desync.com%3A6969","seeders":0,"leechers":1,"uploader":"juggs99","files":3,"time":1367524291,"description":"Source : FooKas(Thanks)\n &lt;a href=&quot;\nhttp://www.imdb.com/title/tt2171847/&quot; rel=&quot;nofollow&quot; target=&quot;_NEW&quot;&gt;\nhttp://www.imdb.com/title/tt2171847/&lt;/a&gt;\n\nFormat                                   : AVI\nFormat/Info                              : Audio Video Interleave\nFile size                                : 699 MiB\nDuration                                 : 1h 31mn\nOverall bit rate                         : 1 068 Kbps\nWriting library                          : VirtualDub build 32842/release\n\nVideo\nID                                       : 0\nFormat                                   : MPEG-4 Visual\nFormat profile                           : Advanced Simple@L5\nFormat settings, BVOP                    : 2\nFormat settings, QPel                    : No\nFormat settings, GMC                     : No warppoints\nFormat settings, Matrix                  : Default (H.263)\nMuxing mode                              : Packed bitstream\nCodec ID                                 : XVID\nCodec ID/Hint                            : XviD\nDuration                                 : 1h 31mn\nBit rate                                 : 930 Kbps\nWidth                                    : 640 pixels\nHeight                                   : 272 pixels\nDisplay aspect ratio                     : 2.35:1\nFrame rate                               : 23.976 fps\nColor space                              : YUV\nChroma subsampling                       : 4:2:0\nBit depth                                : 8 bits\nScan type                                : Progressive\nCompression mode                         : Lossy\nBits/(Pixel*Frame)                       : 0.223\nStream size                              : 609 MiB (87%)\nWriting library                          : XviD 1.2.0.dev47 (UTC 2006-11-01)\n\nAudio\nID                                       : 1\nFormat                                   : MPEG Audio\nFormat version                           : Version 1\nFormat profile                           : Layer 3\nCodec ID                                 : 55\nCodec ID/Hint                            : MP3\nDuration                                 : 1h 31mn\nBit rate mode                            : Constant\nBit rate                                 : 128 Kbps\nChannel(s)                               : 2 channels\nSampling rate                            : 44.1 KHz\nCompression mode                         : Lossy\nStream size                              : 83.8 MiB (12%)\nAlignment                                : Split accross interleaves\nInterleave, duration                     : 42 ms (1.00 video frame)\nInterleave, preload duration             : 500 ms\nWriting library                          : LAME3.99r\nEncoding settings                        : -m s -V 4 -q 3 -lowpass 17 -b 128\n\nPlot\nThe legend of Yamashita's Gold lures a treasure hunter and his group deep into the Indonesian jungle. Once they are trapped in an abandoned World War II Japanese bunker, they face the terrifying reality that the only way out is to go further in.\n\n &lt;a href=&quot;\nhttp://img10.imageshack.us/img10/5708/daley.png&quot; rel=&quot;nofollow&quot; target=&quot;_NEW&quot;&gt;\nhttp://img10.imageshack.us/img10/5708/daley.png&lt;/a&gt; &lt;a href=&quot;\nhttp://img547.imageshack.us/img547/1937/dale1.png&quot; rel=&quot;nofollow&quot; target=&quot;_NEW&quot;&gt;\nhttp://img547.imageshack.us/img547/1937/dale1.png&lt;/a&gt; &lt;a href=&quot;\nhttp://img21.imageshack.us/img21/2118/dale2.png&quot; rel=&quot;nofollow&quot; target=&quot;_NEW&quot;&gt;\nhttp://img21.imageshack.us/img21/2118/dale2.png&lt;/a&gt;","torrent":{"xt":"urn:btih:a2a157b383aa0454c8f497a1b97dfe3e00b24d70","amp;dn":"Dead.Mine.2012.WEBRip+XViD+juggs","amp;tr":["udp%3A%2F%2Ftracker.openbittorrent.com%3A80","udp%3A%2F%2Fopen.demonii.com%3A1337","udp%3A%2F%2Ftracker.coppersurfer.tk%3A6969","udp%3A%2F%2Fexodus.desync.com%3A6969"],"infoHash":"a2a157b383aa0454c8f497a1b97dfe3e00b24d70","infoHashBuffer":{"type":"Buffer","data":[162,161,87,179,131,170,4,84,200,244,151,161,185,125,254,62,0,178,77,112]},"announce":[],"urlList":[]}}